<?xml version="1.0" encoding="utf-8"?>
<!-- Svg Vector Icons : http://www.onlinewebfonts.com/icon -->
<!DOCTYPE svg PUBLIC "-//W3C//DTD SVG 1.1//EN" "http://www.w3.org/Graphics/SVG/1.1/DTD/svg11.dtd">
<svg version="1.1" xmlns="http://www.w3.org/2000/svg" xmlns:xlink="http://www.w3.org/1999/xlink" x="0px" y="0px" viewBox="0 0 1000 1000" enable-background="new 0 0 1000 1000" xml:space="preserve">
<metadata> Svg Vector Icons : http://www.onlinewebfonts.com/icon </metadata>
<g><path d="M905.6,726.9c0,4.9-19.5,73-68.2,141.2c-43.8,58.4-82.8,116.8-150.9,121.7c-68.2,0-87.6-38.9-165.5-38.9s-102.2,38.9-165.5,38.9c-63.3,4.9-116.8-63.3-155.8-121.7c-87.6-121.7-150.9-340.8-63.3-491.7c43.8-73,121.7-121.7,204.5-121.7c63.3,0,126.6,43.8,165.5,43.8c38.9,0,112-53.6,189.9-43.8c34.1,0,121.7,14.6,180.1,97.4c-4.9,4.9-107.1,63.3-107.1,185C774.2,678.2,905.6,726.9,905.6,726.9z M630.5,165.8C664.6,122,689,68.4,684.1,10c-48.7,0-112,34.1-146.1,73c-34.1,34.1-58.4,92.5-53.6,150.9C538,238.8,591.6,204.7,630.5,165.8z"/></g>
</svg>