<?xml version="1.0" encoding="utf-8"?>
<!-- Generator: Adobe Illustrator 22.0.1, SVG Export Plug-In . SVG Version: 6.00 Build 0)  -->
<svg version="1.1" id="圖層_1" xmlns="http://www.w3.org/2000/svg" xmlns:xlink="http://www.w3.org/1999/xlink" x="0px" y="0px"
	 viewBox="0 0 1000 1000" style="enable-background:new 0 0 1000 1000;" xml:space="preserve">
<style type="text/css">
	.st0{fill:#FFFFFF;}
</style>
<g>
	<path class="st0" d="M905.6,726.9c0,4.9-19.5,73-68.2,141.2c-43.8,58.4-82.8,116.8-150.9,121.7c-68.2,0-87.6-38.9-165.5-38.9
		s-102.2,38.9-165.5,38.9c-63.3,4.9-116.8-63.3-155.8-121.7c-87.6-121.7-150.9-340.8-63.3-491.7c43.8-73,121.7-121.7,204.5-121.7
		c63.3,0,126.6,43.8,165.5,43.8s112-53.6,189.9-43.8c34.1,0,121.7,14.6,180.1,97.4c-4.9,4.9-107.1,63.3-107.1,185
		C774.2,678.2,905.6,726.9,905.6,726.9z M630.5,165.8C664.6,122,689,68.4,684.1,10c-48.7,0-112,34.1-146.1,73
		c-34.1,34.1-58.4,92.5-53.6,150.9C538,238.8,591.6,204.7,630.5,165.8z"/>
</g>
</svg>
